<?xml version="1.0" encoding="UTF-8"?>
<svg width="30px" height="30px" viewBox="0 0 30 30" version="1.1" xmlns="http://www.w3.org/2000/svg" xmlns:xlink="http://www.w3.org/1999/xlink">
    <!-- Generator: Sketch 56.3 (81716) - https://sketch.com -->
    <title>icon/点赞_详情页</title>
    <desc>Created with Sketch.</desc>
    <defs>
        <rect id="path-1" x="0.00162337662" y="0.0690872173" width="29" height="29"></rect>
    </defs>
    <g id="icon/点赞_详情页" stroke="none" stroke-width="1" fill="none" fill-rule="evenodd">
        <g id="分组-5">
            <rect id="矩形" fill-rule="nonzero" x="0" y="0" width="30" height="30"></rect>
            <g id="Group-5">
                <g id="Group-2-Copy-7">
                    <mask id="mask-2" fill="white">
                        <use xlink:href="#path-1"></use>
                    </mask>
                    <g id="Mask" fill-rule="nonzero"></g>
                    <g mask="url(#mask-2)">
                        <g transform="translate(2.548763, 0.518832)">
                            <path d="M22.034128,22.0522288 C23.352029,16.2969051 24.0612958,13.1493778 24.1378045,12.7205654 C24.4678597,10.8706885 23.4212904,9.83244922 21.6242077,9.93059788 C16.122203,10.1341956 15.6298251,10.1322596 15.2755585,9.4518497 C15.0813093,9.07877164 15.143685,8.83910299 15.3144276,8.49965886 C15.3701802,8.3888203 15.438858,8.27450785 15.5548166,8.09261015 C15.5153567,8.15450861 15.7762353,7.74798801 15.8511567,7.62827598 C15.9733223,7.43307582 16.079596,7.25474212 16.1798339,7.07421287 C16.5825368,6.34894189 16.8430151,5.66331989 16.9360227,4.98095509 C17.1997396,3.04615332 16.9838281,2.44217932 15.7418257,1.72088435 C14.5694284,1.04001269 12.9815291,1.67474141 12.3914481,3.08090013 C12.0760017,3.83260669 11.5259739,4.87275617 10.7372827,6.21443859 C9.39163798,8.50358306 6.9347041,9.90929997 4.27934003,9.90930442 L2.32153255,9.90930442 C1.5099489,9.90930442 0.85,10.5731414 0.85,11.3945141 L0.85,23.0705624 C0.85,23.8919351 1.5099489,24.555772 2.30681731,24.5558994 L19.4213097,24.259568 C20.5628165,24.2395866 21.5882348,23.2517819 22.034128,22.0522288 Z M16.3284785,8.27924874 C16.326525,8.27881748 16.3245642,8.27838785 16.3225961,8.27795957 C16.327917,8.27911743 16.3354832,8.28044845 16.34515,8.28190114 Z" id="Combined-Shape" stroke="#282828" stroke-width="1.7" fill="none"></path>
                            <path d="M4.95383138,10.3408386 L4.95383138,23.7799655 C4.95383138,24.2494076 5.33438934,24.6299655 5.80383138,24.6299655 C6.27327341,24.6299655 6.65383138,24.2494076 6.65383138,23.7799655 L6.65383138,10.3408386 C6.65383138,9.87139659 6.27327341,9.49083863 5.80383138,9.49083863 C5.33438934,9.49083863 4.95383138,9.87139659 4.95383138,10.3408386 Z" id="Path-2" stroke="none" fill="#282828" fill-rule="nonzero"></path>
                        </g>
                    </g>
                </g>
            </g>
        </g>
    </g>
</svg>